<svg xmlns="http://www.w3.org/2000/svg" xmlns:xlink="http://www.w3.org/1999/xlink" version="1.1" x="0px" y="0px" viewBox="0 0 24 30" style="enable-background:new 0 0 24 24;" xml:space="preserve"><path d="M22,5.3l-4.4,2v0c0-1.1-0.9-1.9-1.9-1.9H3.9C2.9,5.3,2,6.2,2,7.3v0.3h2.2h11.1H17l-7.5,3.3L2,7.6v2.2L7,12l-5,2.2v2.2  l7.5-3.3l7.5,3.3h-1.7H4.2H2v0.3c0,1.1,0.9,1.9,1.9,1.9h11.7c1.1,0,1.9-0.9,1.9-1.9v0l4.4,2v-2.2L12,12l10-4.4V5.3z"/><text x="0" y="39" fill="#000000" font-size="5px" font-weight="bold" font-family="'Helvetica Neue', Helvetica, Arial-Unicode, Arial, Sans-serif">Created by Mas Dhimas</text><text x="0" y="44" fill="#000000" font-size="5px" font-weight="bold" font-family="'Helvetica Neue', Helvetica, Arial-Unicode, Arial, Sans-serif">from the Noun Project</text></svg>